<svg width="48" height="48" xmlns="http://www.w3.org/2000/svg">

 <g>
  <title>background</title>
  <rect fill="none" id="canvas_background" height="402" width="582" y="-1" x="-1"/>
 </g>
 <g>
  <title>Layer 1</title>
  <path fill="#ffffff" id="svg_2" d="m35.139,13.879l0,0l-0.93,-2.534c-0.037,-0.025 -0.068,-0.058 -0.082,-0.105c-0.119,-0.412 -0.664,-1.258 -1.348,-1.67c-0.686,-0.412 -1.748,-0.503 -1.748,-0.503l0.07,-0.021l-1.484,0c0.001,0.053 0.008,0.105 0.008,0.158c0,1.633 -0.703,3.096 -1.814,4.123l0,22.903l3.697,0l0.049,-16.026l4.041,11.38l2.549,6.999l0.1,0.372l5.418,-1.451l-8.526,-23.625z"/>
  <path fill="#ffffff" id="svg_3" d="m26.73,14.108c-0.81,0.453 -1.737,0.721 -2.73,0.721c-3.106,0 -5.625,-2.519 -5.625,-5.625c0,-0.034 0.004,-0.066 0.005,-0.1c0,-0.02 -0.005,-0.038 -0.005,-0.058l-1.384,0l0.02,0.021c0,0 -1.041,-0.034 -1.914,0.616c-0.874,0.649 -1.128,1.376 -1.196,1.6c-0.002,0.009 -0.021,0.006 -0.029,0.012l-0.131,0.358l0,0.001l-9.405,25.75l5.417,1.451l2.842,-7.8l0.002,-0.004l1.144,-3.14l0,0.103l2.921,-7.753l0,15.968l3.558,0l2.614,0l2.334,0l0.989,0l0.574,0l0,-22.121l-0.001,0zm-2.84,18.017c-0.63,0 -1.141,-0.512 -1.141,-1.142c0,-0.629 0.511,-1.141 1.141,-1.141s1.141,0.512 1.141,1.141c0,0.63 -0.511,1.142 -1.141,1.142zm0,-5.823c-0.63,0 -1.141,-0.512 -1.141,-1.142c0,-0.629 0.511,-1.14 1.141,-1.14s1.141,0.511 1.141,1.14c0,0.63 -0.511,1.142 -1.141,1.142zm0,-5.501c-0.63,0 -1.141,-0.511 -1.141,-1.141s0.511,-1.141 1.141,-1.141s1.141,0.511 1.141,1.141s-0.511,1.141 -1.141,1.141z"/>
 </g>
</svg>