<svg width="91" height="91" xmlns="http://www.w3.org/2000/svg">

 <g>
  <title>background</title>
  <rect fill="none" id="canvas_background" height="402" width="582" y="-1" x="-1"/>
 </g>
 <g>
  <title>Layer 1</title>
  <ellipse stroke="null" ry="17.351693" rx="17.994349" id="svg_5" cy="41.751179" cx="45.5" stroke-opacity="null" stroke-width="null" fill="#ffffff"/>
  <path fill="#ad003a" id="svg_2" d="m36.9,51.6l11.6,0l0,-12.6l0,0l0,-5.7l-11.6,0l0,18.3zm6.5,-16.1l3.4,0l0,2.8l-3.4,0l0,-2.8zm0,5.6l3.4,0l0,2.8l-3.4,0l0,-2.8zm0,5.6l3.4,0l0,2.8l-3.4,0l0,-2.8zm-4.7,-11.2l3.3,0l0,2.8l-3.4,0l0,-2.8l0.1,0zm0,5.6l3.3,0l0,2.8l-3.4,0l0,-2.8l0.1,0zm0,5.6l3.3,0l0,2.8l-3.4,0l0,-2.8l0.1,0z"/>
  <path fill="#ad003a" id="svg_3" d="m51.9,51.6l4.5,0c0.3,0 0.6,-0.3 0.6,-0.6l0,-8.7l-5.1,0l0,9.3z"/>
  <path fill="#ad003a" id="svg_4" d="m46.3,20c-12.6,0 -22.9,10.3 -22.9,22.9c0,10.4 7.2,19.6 17.2,22.2l4.5,11.9c0.2,0.5 0.6,0.8 1.2,0.8c0,0 0,0 0,0c0.5,0 1,-0.3 1.2,-0.8l4.3,-11.8c10.1,-2.5 17.4,-11.7 17.4,-22.2c-0.1,-12.7 -10.3,-23 -22.9,-23zm14.1,31.1c0,2.2 -1.8,3.9 -3.9,3.9l-7.9,0l0,0l-15,0l0,-25.1l18.3,0l0,9.1l8.5,0l0,12.1z"/>
 </g>
</svg>