<svg width="48" height="48" xmlns="http://www.w3.org/2000/svg">

 <g>
  <title>background</title>
  <rect fill="none" id="canvas_background" height="402" width="582" y="-1" x="-1"/>
 </g>
 <g>
  <title>Layer 1</title>
  <path fill="#ffffff" id="svg_1" d="m29.706,23.156l-0.119,-0.307l0,-0.819l-0.005,0l0,-2.947l-0.008,0l0,-0.982c0,0 1.075,-0.778 1.075,-2.16l0,-1.019l0,-0.537l0,-0.774l0,-1.257l0,-1.444l0,-2.876l-1.215,0l0,1.146l0,2.197c-2.666,1.176 -4.471,3.209 -4.757,3.545l-1.016,0c-0.267,-0.313 -1.843,-2.087 -4.201,-3.281c-0.194,-0.083 -0.382,-0.16 -0.556,-0.231l0,-0.033l0,-2.198l0,-1.145l-1.215,0l0,2.904l0,1.416l0,1.698l0,0.333l0,1.75c0.096,1.256 1.057,1.965 1.057,1.965l0,0.982l0,2.189l0,1.607l-5.738,17.122l2.594,0l0.876,0l5.799,0l1.796,-6.725l1.953,6.725l2.118,0l4.47,0l2.378,0l-5.286,-16.844z"/>
 </g>
</svg>